<svg width="512" height="512" viewBox="0 0 512 512" fill="none" xmlns="http://www.w3.org/2000/svg">
<path d="M484.96 194.65C496.249 236.779 496.249 275.221 484.96 317.35L462.047 331.228L256 256L464.786 182.139L484.96 194.65Z" fill="#FEFE33"/>
<path d="M317.35 27.0398C359.478 38.3282 392.77 57.5492 423.611 88.3895L424.202 111.972L256 256L296.832 38.4077L317.35 27.0398Z" fill="#FB9902"/>
<path d="M423.611 88.3895C454.451 119.23 473.672 152.522 484.96 194.65L256 256L423.611 88.3895Z" fill="#FABC02"/>
<path d="M88.3895 88.3895C119.23 57.5492 152.522 38.3282 194.65 27.0398L219.217 42.1942L256 256L87.9308 113.832L88.3895 88.3895Z" fill="#FE2712"/>
<path d="M194.65 27.0398C236.779 15.7515 275.221 15.7515 317.35 27.0398L256 256L194.65 27.0398Z" fill="#FD5308"/>
<path d="M27.0398 317.35C15.7515 275.221 15.7515 236.779 27.0398 194.65L53.3914 176.95L256 256L52.9586 331.288L27.0398 317.35Z" fill="#8601AF"/>
<path d="M27.0398 194.65C38.3282 152.522 57.5492 119.23 88.3895 88.3895L256 256L27.0398 194.65Z" fill="#A7194B"/>
<path d="M194.65 484.96C152.522 473.672 119.23 454.451 88.3895 423.611L90.3659 396.884L256 256L219.065 473.796L194.65 484.96Z" fill="#0247FE"/>
<path d="M88.3895 423.611C57.5492 392.77 38.3282 359.478 27.0398 317.35L256 256L88.3895 423.611Z" fill="#3D01A4"/>
<path d="M423.611 423.611C392.77 454.451 359.478 473.672 317.35 484.96L294.356 470.65L256 256L422.918 399.319L423.611 423.611Z" fill="#66B032"/>
<path d="M317.35 484.96C275.221 496.249 236.779 496.249 194.65 484.96L256 256L317.35 484.96Z" fill="#0391CE"/>
<path d="M484.96 317.35C473.672 359.478 454.451 392.77 423.611 423.611L256 256L484.96 317.35Z" fill="#D0EA2B"/>
<path d="M256 401.821C336.535 401.821 401.821 336.535 401.821 256C401.821 175.465 336.535 110.179 256 110.179C175.465 110.179 110.179 175.465 110.179 256C110.179 336.535 175.465 401.821 256 401.821Z" fill="white"/>
</svg>
